<?xml version="1.0" encoding="UTF-8"?>
<svg id="Layer_1" xmlns="http://www.w3.org/2000/svg" version="1.1" viewBox="0 0 1080 1080">
  <!-- Generator: Adobe Illustrator 29.6.1, SVG Export Plug-In . SVG Version: 2.1.1 Build 9)  -->
  <defs>
    <style>
      .st0 {
        fill: #a6b0e8;
      }

      .st1 {
        fill: #736cc4;
      }
    </style>
  </defs>
  <polygon class="st0" points="351.8 570 368.1 510 351.9 570 351.8 570"/>
  <polygon class="st0" points="480.4 390 464.8 447.4 464.1 450 294.4 450 278.1 510 357.8 510 341.5 570 201.9 570 250.7 390 480.4 390"/>
  <polygon class="st0" points="325.2 630 309.6 687.4 308.9 690 169.3 690 185.6 630 325.2 630"/>
  <polygon class="st0" points="910.7 390 829.3 690 569.7 690 585.2 632.6 585.9 630 785.6 630 834.4 450 694.8 450 710.4 392.6 711.1 390 910.7 390"/>
  <polygon class="st1" points="700.7 390 684.4 450 651.9 570 411.9 570 395.6 630 575.6 630 559.3 690 319.3 690 335.6 630 351.8 570 368.1 510 608.1 510 624.4 450 474.4 450 490.7 390 700.7 390"/>
</svg>